<svg width="1214" height="298" viewBox="0 0 1214 298" fill="none" xmlns="http://www.w3.org/2000/svg">
<path d="M16.872 4.31667C6.90872 8.79559 0.5 18.7031 0.5 29.6268V255C0.5 278.472 19.5279 297.5 43 297.5H1171C1194.47 297.5 1213.5 278.472 1213.5 255V54C1213.5 30.5279 1194.47 11.5 1171 11.5H765.821C752.833 11.5 740.557 17.4393 732.496 27.6238L685.492 87.0112C668.736 108.181 636.547 107.968 620.073 86.5789L591.566 49.5678C575.918 29.2511 545.977 27.3159 527.844 45.4492L492.939 80.3541C474.399 98.8935 443.527 95.8088 429.023 73.9677L400.609 31.182C385.494 8.42143 353.138 5.63093 334.349 25.4675L265.201 98.471C249.37 115.185 222.959 115.819 206.344 99.8824L143.747 39.8403C130.2 26.8464 107.687 33.048 102.705 51.1459C95.3503 77.861 56 72.5434 56 44.8346V28.4553C56 8.87267 35.8014 -4.19288 17.9405 3.83633L16.872 4.31667Z" fill="#E75D2A" stroke="#F2622E"/>
</svg>
